<svg width="28" height="27" viewBox="0 0 28 27" fill="none" xmlns="http://www.w3.org/2000/svg">
<path d="M13.9988 26.3334C7.37144 26.3334 1.99886 20.9609 1.99886 14.3334C1.99886 7.70604 7.37144 2.33345 13.9988 2.33345C20.6263 2.33345 25.9988 7.70604 25.9988 14.3334C25.9988 20.9609 20.6263 26.3334 13.9988 26.3334ZM13.9988 23.6668C19.1535 23.6668 23.3321 19.4881 23.3321 14.3334C23.3321 9.17879 19.1535 5.00012 13.9988 5.00012C8.8442 5.00012 4.66552 9.17879 4.66552 14.3334C4.66552 19.4881 8.8442 23.6668 13.9988 23.6668ZM15.3321 14.3334H19.3321V17.0001H12.6655V7.66679H15.3321V14.3334ZM0.328125 5.37676L5.04218 0.66272L6.92779 2.54833L2.21375 7.26239L0.328125 5.37676ZM22.9556 0.66272L27.6696 5.37676L25.784 7.26239L21.0699 2.54833L22.9556 0.66272Z" fill="#27AE60"/>
</svg>
