<svg width="31" height="31" viewBox="0 0 31 31" fill="none" xmlns="http://www.w3.org/2000/svg">
<path d="M3.14 30.8199C2.95161 30.8183 2.76583 30.7758 2.59552 30.6952C2.4252 30.6147 2.27443 30.4981 2.15363 30.3535C2.03284 30.209 1.94491 30.0399 1.89593 29.8579C1.84696 29.676 1.83811 29.4856 1.87 29.2999L2.33 26.6399L0.390002 24.7599C0.218463 24.5904 0.0974809 24.3764 0.0405877 24.142C-0.0163054 23.9076 -0.00686605 23.662 0.0678501 23.4327C0.142566 23.2034 0.279613 22.9993 0.46366 22.8434C0.647708 22.6875 0.871499 22.5859 1.11 22.5499L3.78 22.1599L5 19.7499C5.10852 19.5354 5.27438 19.3552 5.47916 19.2293C5.68394 19.1035 5.91962 19.0368 6.16 19.0368C6.40039 19.0368 6.63606 19.1035 6.84084 19.2293C7.04562 19.3552 7.21149 19.5354 7.32 19.7499L8.51 22.1699L11.18 22.5599C11.4185 22.5959 11.6423 22.6975 11.8263 22.8534C12.0104 23.0093 12.1474 23.2134 12.2222 23.4427C12.2969 23.672 12.3063 23.9176 12.2494 24.152C12.1925 24.3864 12.0715 24.6004 11.9 24.7699L9.97 26.6499L10.43 29.3099C10.4701 29.5482 10.443 29.7928 10.3518 30.0165C10.2606 30.2402 10.1089 30.434 9.91364 30.5763C9.71842 30.7186 9.48742 30.8036 9.24655 30.8219C9.00569 30.8402 8.76449 30.7911 8.55 30.6799L6.13 29.4099L3.75 30.6699C3.56199 30.7691 3.35254 30.8206 3.14 30.8199ZM6.13 27.3199C6.33921 27.3206 6.54512 27.372 6.73 27.4699L8.18 28.2299L7.9 26.6099C7.86313 26.4026 7.87757 26.1894 7.94206 25.989C8.00656 25.7885 8.11915 25.6069 8.27 25.4599L9.44 24.3199L7.82 24.0799C7.60749 24.0539 7.40481 23.9753 7.23023 23.8514C7.05565 23.7274 6.91467 23.562 6.82 23.3699L6.1 21.8999L5.37 23.3699C5.27533 23.562 5.13435 23.7274 4.95977 23.8514C4.7852 23.9753 4.58251 24.0539 4.37 24.0799L2.75 24.3199L4 25.4699C4.15085 25.6169 4.26344 25.7985 4.32794 25.999C4.39244 26.1994 4.40688 26.4126 4.37 26.6199L4.09 28.2299L5.54 27.4699C5.72202 27.374 5.92424 27.3225 6.13 27.3199ZM24.78 22.2599C24.5292 22.2572 24.2826 22.1955 24.06 22.0799L18.91 19.3699L13.76 22.0799C13.4953 22.2176 13.1971 22.2775 12.8998 22.2527C12.6025 22.228 12.3182 22.1195 12.08 21.9399C11.845 21.7636 11.6641 21.5249 11.5581 21.2509C11.452 20.9768 11.425 20.6786 11.48 20.3899L12.48 14.6799L11.71 13.9299C11.5238 13.7426 11.4192 13.4891 11.4192 13.2249C11.4192 12.9608 11.5238 12.7073 11.71 12.5199C11.8974 12.3337 12.1508 12.2292 12.415 12.2292C12.6792 12.2292 12.9326 12.3337 13.12 12.5199L14.06 13.4299C14.2473 13.6123 14.3857 13.8389 14.4626 14.0888C14.5395 14.3386 14.5524 14.6038 14.5 14.8599L13.64 19.9299L18.23 17.5099C18.4579 17.3891 18.712 17.3259 18.97 17.3259C19.228 17.3259 19.4821 17.3891 19.71 17.5099L24.3 19.9299L23.42 14.8099C23.3758 14.5544 23.3956 14.2919 23.4776 14.0458C23.5596 13.7998 23.7013 13.5779 23.89 13.3999L27.57 9.79994L22.4 8.99994C22.1434 8.96227 21.8999 8.86238 21.6907 8.70899C21.4815 8.55561 21.3131 8.35338 21.2 8.11994L18.91 3.51994L16.62 8.16994C16.5002 8.38957 16.3315 8.57867 16.1268 8.7226C15.9222 8.86653 15.6872 8.96143 15.44 8.99994L10.29 9.73994L10.63 10.0799C10.8163 10.2673 10.9208 10.5208 10.9208 10.7849C10.9208 11.0491 10.8163 11.3026 10.63 11.4899C10.537 11.5837 10.4264 11.6581 10.3046 11.7088C10.1827 11.7596 10.052 11.7857 9.92 11.7857C9.78799 11.7857 9.65728 11.7596 9.53543 11.7088C9.41357 11.6581 9.30297 11.5837 9.21 11.4899L8.28 10.5699C8.08218 10.3661 7.94261 10.1129 7.87578 9.83679C7.80895 9.56069 7.81731 9.27172 7.9 8.99994C7.98974 8.72206 8.15519 8.47471 8.37778 8.28569C8.60036 8.09667 8.87125 7.97347 9.16 7.92994L14.92 7.09994L17.5 1.86994C17.6309 1.60655 17.8326 1.3849 18.0826 1.22996C18.3326 1.07501 18.6209 0.99292 18.915 0.99292C19.2091 0.99292 19.4974 1.07501 19.7474 1.22996C19.9974 1.3849 20.1991 1.60655 20.33 1.86994L22.9 7.08994L28.64 7.92994C28.9332 7.96768 29.2094 8.08846 29.4362 8.27804C29.663 8.46763 29.8309 8.7181 29.92 8.99994C30.0152 9.28316 30.0282 9.58756 29.9574 9.87784C29.8866 10.1681 29.7349 10.4324 29.52 10.6399L25.37 14.6999L26.37 20.4199C26.4094 20.6485 26.3983 20.8829 26.3375 21.1067C26.2767 21.3305 26.1677 21.5383 26.0181 21.7155C25.8685 21.8928 25.682 22.0351 25.4716 22.1326C25.2611 22.2301 25.0319 22.2804 24.8 22.2799L24.78 22.2599Z" fill="#27AE60"/>
</svg>
