<svg width="28" height="28" viewBox="0 0 28 28" fill="none" xmlns="http://www.w3.org/2000/svg">
<path d="M13.9993 24.6667C19.8904 24.6667 24.666 19.8911 24.666 14.0001C24.666 8.10904 19.8904 3.33341 13.9993 3.33341C8.10831 3.33341 3.33268 8.10904 3.33268 14.0001C3.33268 19.8911 8.10831 24.6667 13.9993 24.6667ZM13.9993 27.3334C6.63555 27.3334 0.666016 21.3638 0.666016 14.0001C0.666016 6.63628 6.63555 0.666748 13.9993 0.666748C21.3631 0.666748 27.3327 6.63628 27.3327 14.0001C27.3327 21.3638 21.3631 27.3334 13.9993 27.3334ZM13.9993 19.3334C16.9448 19.3334 19.3327 16.9455 19.3327 14.0001C19.3327 11.0546 16.9448 8.66675 13.9993 8.66675C11.0538 8.66675 8.66602 11.0546 8.66602 14.0001C8.66602 16.9455 11.0538 19.3334 13.9993 19.3334ZM13.9993 22.0001C9.58107 22.0001 5.99935 18.4183 5.99935 14.0001C5.99935 9.5818 9.58107 6.00008 13.9993 6.00008C18.4176 6.00008 21.9993 9.5818 21.9993 14.0001C21.9993 18.4183 18.4176 22.0001 13.9993 22.0001ZM13.9993 16.6667C12.5265 16.6667 11.3327 15.4729 11.3327 14.0001C11.3327 12.5273 12.5265 11.3334 13.9993 11.3334C15.4721 11.3334 16.666 12.5273 16.666 14.0001C16.666 15.4729 15.4721 16.6667 13.9993 16.6667Z" fill="#27AE60"/>
</svg>
