<svg width="209" height="82" viewBox="0 0 209 82" fill="none" xmlns="http://www.w3.org/2000/svg">
<path d="M88.2316 59.2552C88.4423 59.5173 88.5466 59.8441 88.5466 60.2348C88.5466 60.7886 88.3424 61.2192 87.9341 61.5258C87.5257 61.8322 86.9343 61.986 86.1591 61.986H83.5183C83.3241 61.986 83.168 61.8285 83.168 61.634V56.016C83.168 55.8216 83.3251 55.6651 83.5183 55.6651H85.9882C86.6967 55.6651 87.2493 55.8068 87.6457 56.0892C88.0421 56.3725 88.2408 56.7726 88.2408 57.2902C88.2408 57.6217 88.1614 57.9069 88.0024 58.1477C87.8435 58.3885 87.6134 58.5717 87.3131 58.6986C87.715 58.8079 88.0218 58.9931 88.2316 59.2552ZM84.3211 58.3652H85.8892C86.2681 58.3652 86.5563 58.2903 86.7542 58.1393C86.9527 57.9884 87.0516 57.7661 87.0516 57.4708C87.0516 57.1762 86.9527 56.9513 86.7542 56.7985C86.5555 56.6447 86.2672 56.5679 85.8892 56.5679H84.3211V58.3652ZM87.3666 60.145C87.3666 59.5311 86.9527 59.2237 86.1229 59.2237H84.3211V61.084H86.1229C86.9527 61.084 87.3666 60.771 87.3666 60.145Z" fill="#A8A8A8"/>
<path d="M94.5354 58.3154C94.1308 57.9774 93.5487 57.806 92.7919 57.806H91.0436V55.9597C91.0436 55.7967 90.9124 55.667 90.7517 55.667H90.1816C90.0209 55.667 89.8896 55.7967 89.8896 55.9597V61.6933C89.8896 61.8563 90.0209 61.986 90.1816 61.986H92.6026C93.4064 61.986 94.0319 61.8026 94.4763 61.4313C94.9208 61.0599 95.1426 60.5266 95.1426 59.8274C95.1426 59.1599 94.9412 58.6551 94.5354 58.3154ZM93.6022 60.7674C93.3573 60.9776 93.0053 61.0832 92.5488 61.0832H91.0436V58.7005H92.5488C93.4969 58.7005 93.9718 59.082 93.9718 59.847C93.9718 60.2506 93.849 60.5572 93.6022 60.7674Z" fill="#A8A8A8"/>
<path d="M97.206 55.9596V61.6933C97.206 61.8563 97.0748 61.986 96.914 61.986H96.344C96.1831 61.986 96.0519 61.8563 96.0519 61.6933V55.9596C96.0519 55.7966 96.1831 55.6669 96.344 55.6669H96.914C97.0748 55.6669 97.206 55.7966 97.206 55.9596Z" fill="#A8A8A8"/>
<path d="M76.7102 59.1282V59.6997C76.7102 59.8607 76.5808 59.9922 76.4183 59.9922H53.8504C53.6879 59.9922 53.5585 59.8607 53.5585 59.6997V59.1282C53.5585 58.9672 53.6879 58.8357 53.8504 58.8357H76.4183C76.5808 58.8357 76.7102 58.9672 76.7102 59.1282Z" fill="#A8A8A8"/>
<path d="M190.714 59.1282V59.6997C190.714 59.8607 190.585 59.9922 190.423 59.9922H167.855C167.693 59.9922 167.562 59.8607 167.562 59.6997V59.1282C167.562 58.9672 167.693 58.8357 167.855 58.8357H190.423C190.585 58.8357 190.714 58.9672 190.714 59.1282Z" fill="#A8A8A8"/>
<path d="M104.054 59.2552C104.264 59.5173 104.369 59.8441 104.369 60.2349C104.369 60.7886 104.165 61.2192 103.756 61.5256C103.348 61.8322 102.756 61.9858 101.981 61.9858H99.3774C99.163 61.9858 98.9893 61.8118 98.9893 61.5969V56.0551C98.9893 55.8402 99.163 55.6661 99.3774 55.6661H101.809C102.518 55.6661 103.071 55.8077 103.467 56.0902C103.863 56.3735 104.062 56.7735 104.062 57.2912C104.062 57.6226 103.983 57.9079 103.824 58.1486C103.665 58.3894 103.435 58.5728 103.134 58.6996C103.537 58.8079 103.843 58.9932 104.054 59.2552ZM100.143 58.3653H101.711C102.09 58.3653 102.378 58.2903 102.576 58.1394C102.775 57.9884 102.874 57.7662 102.874 57.4708C102.874 57.1763 102.775 56.9514 102.576 56.7986C102.378 56.6448 102.089 56.568 101.711 56.568H100.143V58.3653ZM103.189 60.145C103.189 59.5312 102.775 59.2238 101.945 59.2238H100.143V61.084H101.945C102.774 61.084 103.189 60.7711 103.189 60.145Z" fill="#A8A8A8"/>
<path d="M106.882 61.6572C106.366 61.3776 105.96 60.9887 105.666 60.4923C105.372 59.996 105.225 59.4404 105.225 58.8266C105.225 58.2126 105.372 57.657 105.666 57.1606C105.96 56.6643 106.366 56.2754 106.882 55.9957C107.399 55.7161 107.978 55.5762 108.621 55.5762C109.264 55.5762 109.844 55.7161 110.36 55.9957C110.877 56.2754 111.282 56.6624 111.577 57.1559C111.871 57.6496 112.019 58.206 112.019 58.8266C112.019 59.4469 111.872 60.0035 111.577 60.497C111.282 60.9905 110.877 61.3776 110.36 61.6572C109.844 61.9369 109.264 62.0768 108.621 62.0768C107.979 62.0768 107.399 61.9369 106.882 61.6572ZM109.757 60.7628C110.093 60.573 110.358 60.3081 110.55 59.9682C110.742 59.6283 110.838 59.2478 110.838 58.8255C110.838 58.4042 110.742 58.0236 110.55 57.6829C110.358 57.343 110.093 57.0783 109.757 56.8883C109.42 56.6986 109.042 56.604 108.621 56.604C108.201 56.604 107.822 56.6986 107.486 56.8883C107.149 57.0783 106.885 57.343 106.693 57.6829C106.501 58.0228 106.405 58.4042 106.405 58.8255C106.405 59.2469 106.501 59.6275 106.693 59.9682C106.885 60.3081 107.149 60.573 107.486 60.7628C107.822 60.9525 108.201 61.0471 108.621 61.0471C109.043 61.0479 109.42 60.9525 109.757 60.7628Z" fill="#A8A8A8"/>
<path d="M117.339 59.2736C117.553 59.5414 117.659 59.8561 117.659 60.2173C117.659 60.5968 117.536 60.9265 117.289 61.2061C117.043 61.4858 116.714 61.7016 116.302 61.8516C115.891 62.0015 115.442 62.0775 114.955 62.0775C114.535 62.0775 114.113 62.0193 113.69 61.9016C113.335 61.8034 113.002 61.6636 112.692 61.4831C112.588 61.4228 112.549 61.2905 112.597 61.1812L112.781 60.7645C112.838 60.6366 112.991 60.5839 113.113 60.6524C113.329 60.7737 113.561 60.8709 113.811 60.9451C114.147 61.0441 114.48 61.0942 114.81 61.0942C115.284 61.0942 115.68 61.0006 115.995 60.8145C116.31 60.6284 116.468 60.3719 116.468 60.0469C116.468 59.7699 116.353 59.5589 116.125 59.4143C115.897 59.2699 115.582 59.1978 115.179 59.1978H113.988C113.835 59.1978 113.711 59.0736 113.711 58.92V58.5552C113.711 58.4014 113.835 58.2774 113.988 58.2774H115.089C115.365 58.2774 115.593 58.2319 115.774 58.1422C116.12 57.9708 116.294 57.5449 116.157 57.1846C116.096 57.0245 115.978 56.8921 115.806 56.7875C115.539 56.6253 115.198 56.5438 114.784 56.5438C114.501 56.5438 114.21 56.5847 113.909 56.6662C113.703 56.7217 113.506 56.7949 113.317 56.8866C113.177 56.9542 113.01 56.8856 112.953 56.7401L112.784 56.3059C112.731 56.1706 112.795 56.0197 112.926 55.9586C113.181 55.841 113.447 55.7484 113.726 55.6818C114.089 55.5948 114.451 55.5503 114.811 55.5503C115.28 55.5503 115.71 55.6226 116.104 55.767C116.497 55.9114 116.811 56.1179 117.045 56.3855C117.279 56.6531 117.397 56.9681 117.397 57.329C117.397 57.6421 117.313 57.9162 117.144 58.1505C116.984 58.3736 116.767 58.5476 116.494 58.6727C116.478 58.6802 116.479 58.7014 116.496 58.707C116.854 58.8273 117.135 59.0162 117.339 59.2736Z" fill="#A8A8A8"/>
<path d="M127.263 61.7017L127.254 57.7976L125.265 61.1257C125.213 61.2118 125.121 61.2646 125.02 61.2646H124.82C124.72 61.2646 124.627 61.2127 124.576 61.1275L122.586 57.8513V61.7007C122.586 61.859 122.459 61.9868 122.301 61.9868H121.763C121.605 61.9868 121.478 61.859 121.478 61.7007V55.9521C121.478 55.7938 121.605 55.6661 121.763 55.6661H122.28C122.38 55.6661 122.473 55.7189 122.524 55.805L124.937 59.8468L127.323 55.8069C127.374 55.7197 127.468 55.6661 127.568 55.6661H128.076C128.233 55.6661 128.36 55.7938 128.361 55.9513L128.378 61.6998C128.378 61.8581 128.25 61.9868 128.092 61.9868H127.546C127.391 61.9868 127.264 61.859 127.263 61.7017Z" fill="#A8A8A8"/>
<path d="M135.16 55.6661C135.342 55.6661 135.458 55.8606 135.371 56.0217L132.823 60.7682C132.582 61.2202 132.295 61.5581 131.962 61.784C131.629 62.0099 131.267 62.1229 130.877 62.1229C130.642 62.1229 130.409 62.0851 130.177 62.0109C130.05 61.9693 129.977 61.834 130.017 61.7062L130.166 61.2266C130.204 61.1052 130.332 61.0358 130.455 61.0654C130.606 61.1026 130.738 61.121 130.849 61.121C131.228 61.121 131.54 60.9257 131.786 60.5339L131.885 60.3803L129.56 56.0217C129.474 55.8606 129.591 55.667 129.773 55.667H130.475C130.565 55.667 130.649 55.718 130.69 55.7995L132.488 59.3784L134.34 55.7977C134.382 55.718 134.464 55.667 134.554 55.667L135.16 55.6661Z" fill="#A8A8A8"/>
<path d="M137.486 61.6572C136.973 61.3775 136.571 60.9905 136.279 60.497C135.988 60.0034 135.842 59.4469 135.842 58.8265C135.842 58.207 135.989 57.6495 136.283 57.1559C136.577 56.6624 136.982 56.2753 137.496 55.9957C138.009 55.716 138.584 55.5761 139.221 55.5761C139.737 55.5761 140.209 55.666 140.635 55.8475C140.946 55.9789 141.221 56.1531 141.462 56.3707C141.608 56.504 141.604 56.7383 141.46 56.8754L141.197 57.1226C141.069 57.2439 140.87 57.2457 140.735 57.1319C140.323 56.7819 139.836 56.6068 139.274 56.6068C138.842 56.6068 138.455 56.7012 138.112 56.8911C137.769 57.0809 137.502 57.344 137.31 57.681C137.118 58.018 137.022 58.4004 137.022 58.8273C137.022 59.2552 137.118 59.6366 137.31 59.9747C137.502 60.3127 137.769 60.5748 138.112 60.7645C138.455 60.9543 138.842 61.0489 139.274 61.0489C139.835 61.0489 140.321 60.872 140.733 60.5192C140.869 60.4024 141.069 60.4042 141.198 60.5284L141.462 60.7803C141.605 60.9173 141.608 61.1506 141.462 61.2831C141.22 61.5017 140.943 61.6766 140.63 61.8081C140.2 61.9887 139.727 62.0794 139.211 62.0794C138.575 62.0767 138 61.9368 137.486 61.6572Z" fill="#A8A8A8"/>
<path d="M143.852 61.6572C143.335 61.3775 142.93 60.9886 142.636 60.4923C142.341 59.9959 142.194 59.4403 142.194 58.8265C142.194 58.2125 142.341 57.6569 142.636 57.1606C142.93 56.6642 143.335 56.2753 143.852 55.9957C144.368 55.716 144.948 55.5761 145.591 55.5761C146.234 55.5761 146.813 55.716 147.33 55.9957C147.846 56.2753 148.252 56.6624 148.547 57.1559C148.84 57.6495 148.988 58.206 148.988 58.8265C148.988 59.4469 148.841 60.0034 148.547 60.497C148.252 60.9905 147.846 61.3775 147.33 61.6572C146.813 61.9368 146.234 62.0767 145.591 62.0767C144.948 62.0767 144.368 61.9368 143.852 61.6572ZM146.726 60.7627C147.063 60.5729 147.327 60.308 147.519 59.9681C147.711 59.6283 147.808 59.2477 147.808 58.8255C147.808 58.4041 147.711 58.0236 147.519 57.6828C147.327 57.343 147.063 57.0782 146.726 56.8883C146.39 56.6985 146.011 56.604 145.591 56.604C145.17 56.604 144.791 56.6985 144.455 56.8883C144.119 57.0782 143.855 57.343 143.662 57.6828C143.47 58.0227 143.374 58.4041 143.374 58.8255C143.374 59.2469 143.47 59.6274 143.662 59.9681C143.855 60.308 144.119 60.5729 144.455 60.7627C144.791 60.9525 145.17 61.047 145.591 61.047C146.011 61.0479 146.39 60.9525 146.726 60.7627Z" fill="#A8A8A8"/>
<path d="M154.308 55.9364C154.714 56.117 155.024 56.3764 155.241 56.7134C155.457 57.0505 155.565 57.4504 155.565 57.9145C155.565 58.3718 155.457 58.7709 155.241 59.1108C155.024 59.4505 154.713 59.7118 154.308 59.8923C153.903 60.0729 153.427 60.1636 152.88 60.1636H151.456V61.6684C151.456 61.8443 151.314 61.9869 151.138 61.9869H150.603C150.427 61.9869 150.285 61.8443 150.285 61.6684V55.9856C150.285 55.8096 150.427 55.667 150.603 55.667H152.88C153.426 55.6662 153.903 55.7559 154.308 55.9364ZM153.988 58.8441C154.252 58.6274 154.384 58.3173 154.384 57.9145C154.384 57.5117 154.252 57.2014 153.988 56.9847C153.723 56.768 153.335 56.6597 152.825 56.6597H151.456V59.1701H152.825C153.336 59.1691 153.723 59.0608 153.988 58.8441Z" fill="#A8A8A8"/>
<path d="M160.54 60.5237H157.386L156.842 61.8036C156.793 61.9147 156.685 61.9868 156.566 61.9868H156.021C155.803 61.9868 155.658 61.7619 155.746 61.5617L158.313 55.8428C158.363 55.7345 158.471 55.6651 158.588 55.6651H159.353C159.472 55.6651 159.579 55.7345 159.627 55.842L162.203 61.5609C162.292 61.7599 162.148 61.986 161.929 61.986H161.366C161.246 61.986 161.139 61.9147 161.09 61.8044L160.54 60.5237ZM160.151 59.6024L158.963 56.8392L157.783 59.6024H160.151Z" fill="#A8A8A8"/>
<path d="M172.989 46.4553L166.674 32.434C166.485 32.0136 166.064 31.7413 165.604 31.7413H163.686C163.225 31.7413 162.805 32.0136 162.616 32.434L156.321 46.4553C156.157 46.822 156.187 47.2405 156.406 47.5785C156.622 47.9146 156.99 48.1146 157.39 48.1146H158.808C159.282 48.1146 159.704 47.8341 159.889 47.3998L161.101 44.5514H168.15L169.38 47.4062C169.566 47.8368 169.99 48.1156 170.458 48.1156H171.921C172.323 48.1156 172.69 47.9156 172.907 47.5775C173.123 47.2405 173.155 46.8201 172.989 46.4553ZM162.477 41.3383L164.625 36.3139L166.786 41.3383H162.477Z" fill="#1D1D1B"/>
<path d="M68.558 45.3015C68.558 45.6247 68.4202 45.9404 68.1837 46.1627C67.5314 46.7794 66.7644 47.2757 65.9033 47.6387C64.8009 48.1007 63.5747 48.335 62.2572 48.335C60.63 48.335 59.1395 47.972 57.821 47.2526C57.1585 46.8915 56.5644 46.4591 56.0423 45.9562C55.5202 45.4533 55.0694 44.882 54.6933 44.2459C53.943 42.9746 53.5605 41.5206 53.5605 39.928C53.5605 38.3354 53.9467 36.8815 54.7062 35.6083C55.4648 34.3341 56.52 33.3248 57.8451 32.6034C59.1618 31.8858 60.6541 31.521 62.2811 31.521C63.5997 31.521 64.8213 31.7561 65.917 32.2202C66.7709 32.5813 67.5332 33.0775 68.1837 33.6915C68.422 33.9166 68.558 34.2313 68.558 34.5573C68.558 34.8832 68.4267 35.1861 68.1874 35.4101L67.3318 36.2186C66.8872 36.6371 66.2091 36.6492 65.7545 36.2472C64.8101 35.4065 63.718 34.9981 62.4124 34.9981C61.4458 34.9981 60.5717 35.212 59.8131 35.6305C59.0602 36.0472 58.4659 36.6343 58.0446 37.3741C57.6215 38.1158 57.4052 38.9751 57.4052 39.928C57.4052 40.8809 57.6215 41.7392 58.0446 42.4837C58.4659 43.2217 59.061 43.8088 59.8131 44.2255C60.5717 44.6459 61.4458 44.858 62.4124 44.858C63.7143 44.858 64.8064 44.4459 65.7498 43.5986C66.1981 43.195 66.8956 43.207 67.3355 43.6274L68.1947 44.4477C68.4304 44.6728 68.5598 44.9755 68.558 45.3015Z" fill="#27AE60"/>
<path d="M84.3426 32.9183V46.9396C84.3426 47.5867 83.8158 48.1146 83.1682 48.1146H81.7387C81.0929 48.1146 80.5661 47.5867 80.5661 46.9396V35.1304H73.5594V46.9405C73.5594 47.5878 73.0328 48.1156 72.385 48.1156H70.9557C70.3097 48.1156 69.7812 47.5878 69.7812 46.9405V32.9183C69.7812 32.2691 70.3097 31.7413 70.9557 31.7413H83.1682C83.8158 31.7423 84.3426 32.2691 84.3426 32.9183Z" fill="#27AE60"/>
<path d="M98.8605 45.9257V46.9396C98.8605 47.5867 98.3337 48.1146 97.6861 48.1146H87.5387C86.891 48.1146 86.3643 47.5867 86.3643 46.9396V32.9183C86.3643 32.2691 86.891 31.7413 87.5387 31.7413H97.3793C98.0271 31.7413 98.5537 32.2691 98.5537 32.9183V33.9322C98.5537 34.5814 98.0271 35.1092 97.3793 35.1092H90.185V38.1455H96.435C97.0808 38.1455 97.6094 38.6733 97.6094 39.3223V40.2928C97.6094 40.9419 97.0808 41.4697 96.435 41.4697H90.185V44.7487H97.6851C98.3337 44.7487 98.8605 45.2765 98.8605 45.9257Z" fill="#27AE60"/>
<path d="M116.682 45.9034V50.3287C116.682 50.9779 116.155 51.5057 115.508 51.5057H114.253C113.607 51.5057 113.078 50.9779 113.078 50.3287V48.1146H101.208C100.562 48.1146 100.033 47.5867 100.033 46.9396V32.9183C100.033 32.2691 100.562 31.7413 101.208 31.7413H102.637C103.285 31.7413 103.812 32.2691 103.812 32.9183V44.7265H110.598V32.9183C110.598 32.2691 111.125 31.7413 111.773 31.7413H113.222C113.87 31.7413 114.397 32.2691 114.397 32.9183V44.7265H115.508C116.155 44.7265 116.682 45.2543 116.682 45.9034Z" fill="#27AE60"/>
<path d="M143.499 32.9184V33.9527C143.499 34.6017 142.973 35.1295 142.325 35.1295H138.405V46.9397C138.405 47.5868 137.879 48.1147 137.231 48.1147H135.779C135.134 48.1147 134.607 47.5868 134.607 46.9397V35.1305H130.708C130.06 35.1305 129.533 34.6027 129.533 33.9536V32.9192C129.533 32.2702 130.06 31.7424 130.708 31.7424H142.325C142.973 31.7424 143.499 32.2692 143.499 32.9184Z" fill="#1D1D1B"/>
<path d="M127.768 38.0251H120.216C119.571 38.0251 119.043 38.5539 119.043 39.2002V40.6549C119.043 41.3041 119.57 41.8319 120.216 41.8319H127.768C128.277 41.8319 128.69 41.4189 128.69 40.9086V38.9483C128.69 38.4381 128.277 38.0251 127.768 38.0251Z" fill="#1D1D1B"/>
<path d="M157.712 34.5156C157.424 34.0665 157.073 33.6665 156.658 33.3201C156.242 32.9738 155.765 32.6812 155.23 32.4423C154.183 31.9766 152.946 31.7413 151.552 31.7413H145.92C145.272 31.7413 144.745 32.2691 144.745 32.9183V46.9396C144.745 47.5867 145.272 48.1146 145.92 48.1146H147.392C148.04 48.1146 148.567 47.5867 148.567 46.9396V43.669H151.553C152.947 43.669 154.184 43.4337 155.231 42.968C156.302 42.4902 157.14 41.7892 157.715 40.8818C158.29 39.9771 158.581 38.9095 158.581 37.7056C158.581 36.4861 158.29 35.4148 157.712 34.5156ZM154.737 37.7066C154.737 38.5437 154.48 39.1613 153.95 39.5983C153.397 40.0493 152.546 40.2807 151.422 40.2807H148.568V35.1304H151.422C152.545 35.1304 153.397 35.361 153.95 35.8147C154.479 36.249 154.737 36.8677 154.737 37.7066Z" fill="#1D1D1B"/>
<path d="M188.695 32.9183V46.9396C188.695 47.5867 188.167 48.1146 187.52 48.1146H186.047C185.399 48.1146 184.873 47.5867 184.873 46.9396V41.5124H177.888V46.9396C177.888 47.5867 177.362 48.1146 176.715 48.1146H175.241C174.594 48.1146 174.066 47.5867 174.066 46.9396V32.9183C174.066 32.2691 174.594 31.7413 175.241 31.7413H176.715C177.362 31.7413 177.888 32.2691 177.888 32.9183V38.102H184.873V32.9183C184.873 32.2691 185.399 31.7413 186.047 31.7413H187.52C188.167 31.7423 188.695 32.2691 188.695 32.9183Z" fill="#1D1D1B"/>
<path d="M204.647 45.3015C204.647 45.6247 204.51 45.9404 204.274 46.1627C203.621 46.7794 202.852 47.2757 201.992 47.6387C200.891 48.1007 199.664 48.335 198.346 48.335C196.719 48.335 195.229 47.972 193.91 47.2526C192.586 46.5312 191.533 45.5191 190.782 44.2459C190.032 42.9746 189.65 41.5206 189.65 39.928C189.65 38.3354 190.035 36.8815 190.795 35.6083C191.554 34.3369 192.61 33.3248 193.934 32.6034C195.25 31.8858 196.743 31.521 198.37 31.521C199.689 31.521 200.911 31.7561 202.007 32.2202C202.861 32.5813 203.622 33.0775 204.274 33.6915C204.511 33.9166 204.647 34.2313 204.647 34.5573C204.647 34.8832 204.516 35.1861 204.277 35.4101L203.422 36.2186C202.975 36.6371 202.298 36.6492 201.843 36.2472C200.899 35.4065 199.806 34.9981 198.502 34.9981C197.534 34.9981 196.661 35.212 195.902 35.6305C195.149 36.0472 194.555 36.6343 194.135 37.3741C193.711 38.1158 193.495 38.9751 193.495 39.928C193.495 40.8809 193.711 41.7392 194.135 42.4837C194.555 43.2217 195.151 43.8088 195.902 44.2255C196.661 44.6459 197.534 44.858 198.502 44.858C199.804 44.858 200.896 44.4459 201.84 43.5986C202.287 43.195 202.985 43.207 203.427 43.6274L204.284 44.4477C204.52 44.6728 204.649 44.9755 204.647 45.3015Z" fill="#1D1D1B"/>
<path d="M39.6304 28.8439L36.5979 30.0895C35.8559 30.394 35.7089 31.3673 36.3132 31.8941C42.2777 37.0889 44.4842 45.1746 41.7769 52.651C38.8053 60.8515 30.8497 65.7944 22.0061 64.9667C13.4933 64.1601 6.34247 57.1597 5.37222 48.6795C4.35026 39.5382 9.42766 31.2237 17.7547 28.4633C17.8064 28.4429 17.8888 28.4319 17.971 28.4319C18.2602 28.4319 18.6824 28.5356 19.0031 28.6078L19.2507 28.6699C19.746 28.7838 20.2513 28.9495 20.7882 29.1245C21.8822 29.4967 22.9966 29.8691 24.2145 29.8486C25.8444 29.8172 27.5889 29.5588 29.4359 29.0939L29.5293 29.0624C30.0042 28.9485 30.4883 28.8143 30.9734 28.6588L31.5104 28.493C32.0877 28.3171 32.656 28.141 33.2235 27.9652L34.1003 27.7068L43.6036 24.8937L42.7166 24.1075C39.4558 21.2119 36.1534 19.0193 32.6145 17.4173C29.6013 16.032 27.0012 15.4217 24.3909 15.5042C20.3771 15.6588 17.2095 17.5617 14.7018 21.3156L14.5882 21.4815C18.3545 20.4573 26.8876 19.0924 36.815 23.7353C36.815 23.7353 21.7389 20.8916 13.5977 24.5834C13.2161 24.7595 12.8446 24.9558 12.4834 25.1623C12.2874 25.2658 12.1017 25.3798 11.9159 25.503C3.74412 30.4153 -0.930403 39.7529 0.328095 49.2768C1.73165 59.9691 9.89334 68.2521 20.6459 69.9068C21.8019 70.0827 22.9467 70.1754 24.0925 70.1754C28.633 70.1754 33.0487 68.8308 36.8363 66.4113C40.6127 63.9916 43.7598 60.5061 45.7621 56.2356C50.0375 47.0794 47.9769 36.1074 40.7928 29.0596C40.4851 28.7642 40.0249 28.6827 39.6304 28.8439Z" fill="#27AE60"/>
<path d="M31.2526 55.9882L31.1602 57.6125C31.1602 57.6125 31.1492 57.6125 31.1371 57.6013C30.6547 57.2559 23.0327 51.7723 18.7786 48.1777C18.7324 48.1434 18.6871 48.097 18.6409 48.0627C17.5488 47.1294 16.4566 46.1616 15.5021 45.0561C13.2032 42.4291 12.6626 38.9271 14.019 35.9434C23.5262 38.6742 27.0899 47.9017 27.3201 48.5239C25.3889 39.653 18.1004 34.0424 15.3987 32.233L16.525 32.1636C19.1002 32.0136 22.8248 32.1405 25.4572 34.9748C27.2167 36.8871 28.6303 39.065 29.5385 41.2883C31.5169 46.0922 31.5288 51.1963 31.2526 55.9882Z" fill="#27AE60"/>
</svg>
