<svg width="25" height="24" viewBox="0 0 25 24" fill="none" xmlns="http://www.w3.org/2000/svg">
<path d="M18.9864 6.76347H24.542V8.98569H18.9864V6.76347ZM16.7642 12.319H24.542V14.5412H16.7642V12.319ZM20.0975 17.8746H24.542V20.0968H20.0975V17.8746ZM0.0975342 23.4301C0.0975342 21.0727 1.03404 18.8117 2.70103 17.1447C4.36802 15.4777 6.62894 14.5412 8.98642 14.5412C11.3439 14.5412 13.6048 15.4777 15.2718 17.1447C16.9388 18.8117 17.8753 21.0727 17.8753 23.4301H15.6531C15.6531 21.662 14.9507 19.9663 13.7005 18.7161C12.4502 17.4658 10.7545 16.7635 8.98642 16.7635C7.21831 16.7635 5.52262 17.4658 4.27238 18.7161C3.02214 19.9663 2.31976 21.662 2.31976 23.4301H0.0975342ZM8.98642 13.4301C5.30309 13.4301 2.31976 10.4468 2.31976 6.76347C2.31976 3.08013 5.30309 0.0968018 8.98642 0.0968018C12.6698 0.0968018 15.6531 3.08013 15.6531 6.76347C15.6531 10.4468 12.6698 13.4301 8.98642 13.4301ZM8.98642 11.2079C11.442 11.2079 13.4309 9.21902 13.4309 6.76347C13.4309 4.30791 11.442 2.31902 8.98642 2.31902C6.53087 2.31902 4.54198 4.30791 4.54198 6.76347C4.54198 9.21902 6.53087 11.2079 8.98642 11.2079Z" fill="#27AE60"/>
</svg>
