<svg width="28" height="28" viewBox="0 0 28 28" fill="none" xmlns="http://www.w3.org/2000/svg">
<path d="M14.0003 0.666748C21.3643 0.666748 27.3337 6.63608 27.3337 14.0001C27.3337 21.3641 21.3643 27.3334 14.0003 27.3334C6.63633 27.3334 0.666992 21.3641 0.666992 14.0001H3.33366C3.33366 19.8907 8.10966 24.6667 14.0003 24.6667C19.891 24.6667 24.667 19.8907 24.667 14.0001C24.667 8.10941 19.891 3.33341 14.0003 3.33341C10.715 3.33341 7.77633 4.81875 5.82033 7.15342L8.66699 10.0001H0.666992V2.00008L3.92966 5.26142C6.37366 2.44808 9.97899 0.666748 14.0003 0.666748ZM15.3337 7.33342V13.4467L19.6577 17.7707L17.771 19.6574L12.667 14.5507V7.33342H15.3337Z" fill="#27AE60"/>
</svg>
